<svg width="16" height="16" xmlns="http://www.w3.org/2000/svg">

 <g>
  <title>Layer 1</title>
  <path d="m1.03201,7.28437c0.56497,0 2.07156,0.18832 2.82486,0.18832c0.7533,0 2.07156,0 3.57815,0c0.94162,0 2.25989,0 2.82486,0c0.37665,0 0.75329,-0.18832 1.31827,-0.18832c1.31827,0 1.88324,0 2.07156,0c0,0 0.18832,0 0.37665,0c0.18832,0 0.37665,0 0.37665,0c0.18832,0 0.56497,0 0.7533,0l0,0" id="svg_1" stroke="#000" fill="none"/>
  <path d="m8.37664,0.12806c0,0.37665 0,0.56497 0,0.94162c0,0.94162 0.03906,2.25119 0.18832,3.01318c0.25599,1.30681 0.05026,2.08003 0.18832,3.20151c0.09487,0.77066 0.37665,1.69492 0.37665,3.01318c0,0.7533 0,1.50659 0,2.44821c0,0.75329 0,1.69491 0,2.07156c0,0.18832 0,0.37665 0,0.56497l0,0l0,0.18832l0,0" id="svg_2" stroke="#000" fill="none"/>
 </g>
</svg>